<?xml version="1.0" encoding="utf-8"?>
<!-- Generator: Adobe Illustrator 20.1.0, SVG Export Plug-In . SVG Version: 6.00 Build 0)  -->
<svg version="1.1"
	 id="svg2" xmlns:cc="http://creativecommons.org/ns#" xmlns:dc="http://purl.org/dc/elements/1.1/" xmlns:rdf="http://www.w3.org/1999/02/22-rdf-syntax-ns#" xmlns:svg="http://www.w3.org/2000/svg"
	 xmlns="http://www.w3.org/2000/svg" xmlns:xlink="http://www.w3.org/1999/xlink" x="0px" y="0px" viewBox="0 0 795.2 198"
	 style="enable-background:new 0 0 795.2 198;" xml:space="preserve">
<style type="text/css">
	.st0{fill:#1E1E1E;}
</style>
<g id="g10" transform="matrix(1.3333333,0,0,-1.3333333,0,197.98667)">
	<g id="g12" transform="scale(0.1)">
		<path id="path14" class="st0" d="M228.7,16.6H0v1453.6l228.7-14.8V16.6"/>
		<path id="path16" class="st0" d="M603.2,16.6H374.4v1036.7l228.7-12.9V16.6z M488.8,1368.7c71.9,0,131-59,131-131
			c0-71.9-59-131-131-131c-71.9,0-131,59-131,131C357.8,1309.7,416.9,1368.7,488.8,1368.7"/>
		<path id="path18" class="st0" d="M1149.2,844.9V616.1H977.6V17.6H748.9v1137.1c0,173.4,143.9,330.2,313.6,330.2
			c57.2,0,103.3-16.6,114.4-24l-9.2-219.5h-105.1c-46.1,0-84.9-38.7-84.9-86.7V844.9H1149.2"/>
		<path id="path20" class="st0" d="M1470.5,645.6H1642v107c0,48-38.7,86.7-84.9,86.7c-48,0-86.7-38.7-86.7-86.7V645.6z
			 M1241.7,752.6c0,173.4,140.2,315.4,315.4,315.4c173.4,0,313.6-142,313.6-315.4V531.3c0-64.6-51.7-114.4-114.4-114.4h-285.9v-99.6
			c0-47.9,38.7-86.7,86.7-86.7h219.5l7.4-193.7L1577.4,5.5c-199.2-33.2-335.7,138.4-335.7,311.7V752.6"/>
		<path id="path22" class="st0" d="M2066.3,16.6V1461h147.6v-439c40.6,12.9,105.1,18.4,149.4,18.4c156.8,0,278.5-142,278.5-302.5
			V16.6H2498v721.3c0,79.3-64.6,142-143.9,142h-140.2V16.6H2066.3"/>
		<path id="path24" class="st0" d="M3181.7,295.1v249h-142c-79.3,0-142-62.7-142-142v-107c0-79.3,62.7-143.9,142-143.9
			C3119,151.3,3181.7,215.8,3181.7,295.1z M3181.7,761.8c0,83-38.7,149.4-143.9,138.3h1.8c-59-1.8-134.7-9.2-197.4-12.9
			c-1.8,53.5-3.7,73.8-5.5,114.4c49.8,18.5,121.7,36.9,182.6,38.7c184.5,3.7,306.2-145.7,306.2-306.2v-439
			c0-158.6-127.3-289.6-285.9-289.6c-158.6,0-289.6,131-289.6,289.6v90.4c0,158.6,108.8,278.5,289.6,278.5
			c68.3,0,103.3-7.4,142-18.4V761.8"/>
		<path id="path26" class="st0" d="M3738.9,1040.4c158.6,0,289.6-129.1,289.6-289.6v-18.4c-57.2-1.8-103.3-1.8-145.7-3.7v22.1
			c0,77.5-64.6,142-143.9,142c-77.5,0-140.2-64.6-140.2-142V289.6c0-81.2,62.7-142,140.2-142c77.5,0,142,59,143.9,136.5
			c71.9-5.5,140.2-9.2,145.7-9.2C4021.1,121.8,3892,0,3738.9,0c-158.6,0-287.8,129.1-287.8,289.6v461.2
			C3451.1,911.3,3580.3,1040.4,3738.9,1040.4"/>
		<path id="path28" class="st0" d="M4609.9,16.6l-280.4,488.8c-27.7,48-27.7,53.5,5.5,110.7l247.2,409.5h167.9l-278.5-472.2
			l300.7-536.8H4609.9z M4292.6,1457.3V16.6h-147.6v1440.7H4292.6"/>
		<path id="path30" class="st0" d="M4950.9,594H5235v155c0,79.3-64.6,143.9-142,143.9c-79.3,0-142-64.6-142-143.9V594z
			 M4803.3,748.9c0,160.5,129.1,291.4,289.6,291.4c158.6,0,287.8-131,287.8-291.4V522c0-42.4-33.2-73.8-73.8-73.8h-356V291.5
			c0-79.3,62.7-143.9,142-143.9h186.3c1.8-47.9,3.7-81.2,7.4-114.4L5109.5,5.5c-180.8-31.4-306.2,125.4-306.2,285.9L4803.3,748.9"/>
		<path id="path32" class="st0" d="M5657.7,16.6h-147.6V736c0,160.5,125.4,309.9,309.9,306.2c62.7-1.8,101.5-16.6,143.9-36.9
			c-1.9-44.3-3.7-81.2-5.5-114.4l-160.5,3.7c-77.5,0-140.2-83-140.2-158.6V16.6"/>
	</g>
</g>
</svg>
